<?xml version="1.0" standalone="no"?>
<!DOCTYPE svg PUBLIC "-//W3C//DTD SVG 1.1//EN" "http://www.w3.org/Graphics/SVG/1.1/DTD/svg11.dtd" >
<svg xmlns="http://www.w3.org/2000/svg">
<metadata></metadata>
<defs>
<font id="haymakerregular" horiz-adv-x="448" >
<font-face units-per-em="1024" ascent="819" descent="-205" />
<missing-glyph horiz-adv-x="328" />
<glyph horiz-adv-x="1024" />
<glyph horiz-adv-x="1024" />
<glyph unicode="&#xd;" horiz-adv-x="328" />
<glyph unicode="&#x9;" horiz-adv-x="626" d="M57 0v78h77v-78h-77zM275 0v78h78v-78h-78zM493 0v78h78v-78h-78z" />
<glyph unicode=" "  horiz-adv-x="328" />
<glyph unicode="&#x09;" horiz-adv-x="328" />
<glyph unicode="&#xa0;" horiz-adv-x="328" />
<glyph unicode="!" horiz-adv-x="261" d="M92 0v78h78v-78h-78zM92 137v395h78v-395h-78z" />
<glyph unicode="&#x22;" horiz-adv-x="292" d="M42 455v78h78v-78l-22 -50h-16v50h-40zM173 455v78h78v-78l-22 -50h-16v50h-40z" />
<glyph unicode="&#x26;" horiz-adv-x="558" d="M55 85v90l88 92l-88 88v89l100 89h84l100 -89v-89l-88 -90l83 -86l54 56l56 -54l-56 -57l118 -124h-94l-74 72l-70 -72h-120zM133 122l48 -44h54l48 49l-83 84l-67 -69v-20zM133 388l64 -66l64 66v23l-45 44h-35l-48 -44v-23z" />
<glyph unicode="'" horiz-adv-x="154" d="M38 455v78h78v-78l-22 -50h-15v50h-41z" />
<glyph unicode="+" d="M77 234v76h109v110h77v-110h108v-76h-108v-109l-39 -1l-38 1v109h-109z" />
<glyph unicode="," horiz-adv-x="154" d="M38 0v78h78v-78l-22 -50h-15v50h-41z" />
<glyph unicode="-" d="M33 272l44 38h294l45 -38l-45 -38h-294z" />
<glyph unicode="." horiz-adv-x="152" d="M38 0v78h78v-78h-78z" />
<glyph unicode="0" horiz-adv-x="501" d="M34 265l45 39v140l100 89h145l100 -89v-140l44 -39l-44 -39v-137l-100 -89h-145l-100 89v137zM157 125l55 -47h79l55 47v282l-55 48h-79l-55 -48v-282z" />
<glyph unicode="1" horiz-adv-x="362" d="M75 0v77h68v153l-44 38l44 39v120h-68v59l68 47h78v-226l45 -39l-45 -38v-153h68v-77h-214z" />
<glyph unicode="2" horiz-adv-x="492" d="M62 0v200l100 89h140l52 45v77l-52 44h-110l-51 -44v-55h-79v88l101 89h169l100 -89v-144l-100 -89h-137l-54 -48v-85h291v-78h-370z" />
<glyph unicode="3" horiz-adv-x="492" d="M62 89v89h78v-56l51 -44h111l52 44v70l-52 42h-112l164 114v63l-52 44h-111l-51 -44v-55h-78v88l100 89h170l99 -89v-129l-54 -40l-187 -41v77h142l99 -82v-140l-99 -89h-170z" />
<glyph unicode="4" horiz-adv-x="470" d="M54 226v307h77v-229h164v229h78v-229l44 -38l-44 -40v-225h-78v225h-241z" />
<glyph unicode="5" horiz-adv-x="476" d="M65 89v89h78v-56l51 -44h89l51 44v82l-51 44h-117h-101v283h316v-78h-238v-127h169l101 -83v-154l-101 -89h-147z" />
<glyph unicode="6" horiz-adv-x="469" d="M36 265l45 38v141l100 89h153l99 -89v-97h-77v63l-56 45h-86l-56 -48l2 -103l174 -1l99 -77v-138l-99 -88h-153l-100 88v137zM158 125l56 -48h86l56 44v67l-45 37h-153v-100z" />
<glyph unicode="7" horiz-adv-x="409" d="M31 455v78h348v-79l-57 -154l37 -37l-66 -43l-84 -220h-82l85 225l-32 43l59 36l58 150z" />
<glyph unicode="8" horiz-adv-x="492" d="M62 89v140l56 45l-41 41v129l101 89h139l100 -89v-129l-47 -41l62 -45v-140l-100 -89h-169zM140 192l1 -70l51 -44h110l52 44v70l-52 42h-111zM155 348l51 -37h80l53 37v63l-51 44h-81l-52 -44v-63z" />
<glyph unicode="9" horiz-adv-x="469" d="M43 89v96h78v-62l56 -45h86l56 48l-2 103l-174 1l-100 76v139l100 88h153l100 -88v-138l45 -39l-45 -38v-141l-100 -89h-153zM121 344l44 -37h154v101l-56 48h-86l-56 -44v-68z" />
<glyph unicode=":" horiz-adv-x="154" d="M38 0v78h78v-78h-78zM38 233v77h78v-77h-78z" />
<glyph unicode=";" horiz-adv-x="154" d="M38 0v78h78v-78l-22 -50h-15v50h-41zM38 233v77h78v-77h-78z" />
<glyph unicode="?" horiz-adv-x="424" d="M28 356v88q23 23 48.5 44.5t50.5 44.5h171l100 -89v-122l-101 -89h-55v-96h-77v173h99l56 45v56l-55 44h-105l-55 -44v-56q-20 1 -38.5 1h-38.5zM165 0v78h78v-78h-78z" />
<glyph unicode="A" horiz-adv-x="528" d="M24 0l85 225l-38 40l65 33l88 235h81l201 -533h-82l-51 133h-218l-50 -133h-81zM185 211h159l-79 218z" />
<glyph unicode="B" horiz-adv-x="493" d="M50 265l44 38v230h259l86 -101v-106l-49 -57l54 -58v-112l-83 -99h-267v226zM173 77h151l42 56v45l-42 46h-151v-147zM173 304h142l46 55v41l-46 56h-142v-152z" />
<glyph unicode="C" horiz-adv-x="512" d="M40 265l44 38v141l101 89h188l101 -89v-111h-79v77l-55 45h-123l-55 -48v-282l55 -48h123l55 46v65h79v-100l-101 -88h-188l-101 88v137z" />
<glyph unicode="D" horiz-adv-x="497" d="M38 266l45 38v229h278l99 -89v-355l-99 -88h-278v225zM161 79h166l56 47v281l-56 48h-166v-376z" />
<glyph unicode="E" horiz-adv-x="450" d="M42 266l45 38v229h321v-78h-244v-151h189v-78h-189v-147h244v-78h-321v225z" />
<glyph unicode="F" horiz-adv-x="460" d="M50 265l44 39v229h317v-78h-238v-151h188v-78h-188v-226h-79v226z" />
<glyph unicode="G" horiz-adv-x="532" d="M50 265l44 39v140l100 89h188l99 -89l2 -111h-78v70l-55 52h-122l-55 -48v-281l55 -48h122l55 51v57h-103v78h181v-175l-100 -89h-189l-100 89v137z" />
<glyph unicode="H" horiz-adv-x="567" d="M51 266l44 38v229h78v-229h222v229h78v-229l44 -38l-44 -40v-225h-78v225h-222v-225h-78v225z" />
<glyph unicode="I" horiz-adv-x="270" d="M53 265l44 38v230h78v-230l44 -38l-44 -40v-225h-78v225z" />
<glyph unicode="J" horiz-adv-x="534" d="M58 89v145h78v-111l56 -45h107l56 52v403h77v-229l46 -39l-46 -39v-137l-100 -89h-174z" />
<glyph unicode="K" horiz-adv-x="499" d="M31 266l44 38v229h78v-256l206 256h88l-193 -239l216 -293h-89l-174 234l-54 -67v-167h-78v225z" />
<glyph unicode="L" horiz-adv-x="457" d="M46 265l44 39v229h78v-455h245v-78h-323v226z" />
<glyph unicode="M" horiz-adv-x="629" d="M23 265l44 39v229h85l163 -300l163 300h85v-229l44 -39l-44 -39v-226h-78v395l-129 -244h-82l-129 244v-395h-78v226z" />
<glyph unicode="N" horiz-adv-x="548" d="M41 265l45 39v229h82l218 -384v384h78v-229l44 -39l-44 -39v-226h-78l-223 395v-395h-77v226z" />
<glyph unicode="O" horiz-adv-x="538" d="M31 265l44 39v140l101 89h189l99 -89v-140l45 -39l-45 -39v-137l-99 -89h-189l-101 89v137zM154 125l55 -47h123l55 47v282l-55 48h-123l-55 -48v-282z" />
<glyph unicode="P" horiz-adv-x="509" d="M61 265l44 39v229h259l86 -100v-107l-86 -101h-181v-225h-78v226zM183 304h144l45 55v41l-45 55h-144v-151z" />
<glyph unicode="Q" horiz-adv-x="548" d="M36 265l45 38v141l99 89h188l100 -89v-141l45 -38l-45 -40v-136l-100 -89h-56v-61h-76v61h-56l-99 89v136zM158 125l55 -47h23v55h76v-55h23l56 47v281l-56 49h-122l-55 -49v-281z" />
<glyph unicode="R" horiz-adv-x="487" d="M37 265l45 38v230h257l86 -101v-106l-86 -101l111 -225h-84l-112 225h-95v-225h-77v225zM159 303h143l45 56v41l-45 54h-143v-151z" />
<glyph unicode="S" horiz-adv-x="492" d="M56 89v96h77v-59l56 -48h115l55 48v59l-55 48h-136l-101 89v122l101 89h169l100 -89v-88h-78v55l-52 44h-110l-51 -44v-55l51 -46h140l100 -88v-133l-100 -89h-181z" />
<glyph unicode="T" horiz-adv-x="438" d="M26 455v78h388v-78h-155v-152l44 -38l-44 -39v-226h-78v226l-44 39l44 38v152h-155z" />
<glyph unicode="U" horiz-adv-x="547" d="M36 265l44 39v229h78v-407l55 -48h122l55 48v407h78v-229l45 -39l-45 -39v-137l-100 -89h-188l-100 89v137z" />
<glyph unicode="V" horiz-adv-x="506" d="M9 533h88l156 -425l155 425h91l-87 -235l40 -39l-68 -34l-89 -225h-83l-88 225l-68 34l41 39z" />
<glyph unicode="W" horiz-adv-x="702" d="M3 533h89l122 -425l93 425h88l93 -425l122 425h89l-71 -231l44 -43l-68 -34l-71 -225h-89l-93 393l-92 -393h-89l-72 225l-68 34l45 43z" />
<glyph unicode="X" horiz-adv-x="476" d="M21 0l174 266l-174 267h88l130 -201l129 201h89l-175 -267l175 -266h-89l-129 202l-130 -202h-88z" />
<glyph unicode="Y" horiz-adv-x="489" d="M6 533h89l151 -221l149 221h89l-201 -300v-233h-77v233z" />
<glyph unicode="Z" horiz-adv-x="447" d="M36 0v78l279 377h-279v78h377v-78l-278 -377h278v-78h-377z" />
<glyph unicode="a" horiz-adv-x="528" d="M24 0l85 225l-38 40l65 33l88 235h81l201 -533h-82l-51 133h-218l-50 -133h-81zM185 211h159l-79 218z" />
<glyph unicode="b" horiz-adv-x="493" d="M50 265l44 38v230h259l86 -101v-106l-49 -57l54 -58v-112l-83 -99h-267v226zM173 77h151l42 56v45l-42 46h-151v-147zM173 304h142l46 55v41l-46 56h-142v-152z" />
<glyph unicode="c" horiz-adv-x="512" d="M40 265l44 38v141l101 89h188l101 -89v-111h-79v77l-55 45h-123l-55 -48v-282l55 -48h123l55 46v65h79v-100l-101 -88h-188l-101 88v137z" />
<glyph unicode="d" horiz-adv-x="497" d="M38 266l45 38v229h278l99 -89v-355l-99 -88h-278v225zM161 79h166l56 47v281l-56 48h-166v-376z" />
<glyph unicode="e" horiz-adv-x="450" d="M42 266l45 38v229h321v-78h-244v-151h189v-78h-189v-147h244v-78h-321v225z" />
<glyph unicode="f" horiz-adv-x="460" d="M50 265l44 39v229h317v-78h-238v-151h188v-78h-188v-226h-79v226z" />
<glyph unicode="g" horiz-adv-x="532" d="M50 265l44 39v140l100 89h188l99 -89l2 -111h-78v70l-55 52h-122l-55 -48v-281l55 -48h122l55 51v57h-103v78h181v-175l-100 -89h-189l-100 89v137z" />
<glyph unicode="h" horiz-adv-x="567" d="M51 266l44 38v229h78v-229h222v229h78v-229l44 -38l-44 -40v-225h-78v225h-222v-225h-78v225z" />
<glyph unicode="i" horiz-adv-x="270" d="M53 265l44 38v230h78v-230l44 -38l-44 -40v-225h-78v225z" />
<glyph unicode="j" horiz-adv-x="534" d="M58 89v145h78v-111l56 -45h107l56 52v403h77v-229l46 -39l-46 -39v-137l-100 -89h-174z" />
<glyph unicode="k" horiz-adv-x="499" d="M31 266l44 38v229h78v-256l206 256h88l-193 -239l216 -293h-89l-174 234l-54 -67v-167h-78v225z" />
<glyph unicode="l" horiz-adv-x="457" d="M46 265l44 39v229h78v-455h245v-78h-323v226z" />
<glyph unicode="m" horiz-adv-x="629" d="M23 265l44 39v229h85l163 -300l163 300h85v-229l44 -39l-44 -39v-226h-78v395l-129 -244h-82l-129 244v-395h-78v226z" />
<glyph unicode="n" horiz-adv-x="548" d="M41 265l45 39v229h82l218 -384v384h78v-229l44 -39l-44 -39v-226h-78l-223 395v-395h-77v226z" />
<glyph unicode="o" horiz-adv-x="538" d="M31 265l44 39v140l101 89h189l99 -89v-140l45 -39l-45 -39v-137l-99 -89h-189l-101 89v137zM154 125l55 -47h123l55 47v282l-55 48h-123l-55 -48v-282z" />
<glyph unicode="p" horiz-adv-x="509" d="M61 265l44 39v229h259l86 -100v-107l-86 -101h-181v-225h-78v226zM183 304h144l45 55v41l-45 55h-144v-151z" />
<glyph unicode="q" horiz-adv-x="548" d="M36 265l45 38v141l99 89h188l100 -89v-141l45 -38l-45 -40v-136l-100 -89h-56v-61h-76v61h-56l-99 89v136zM158 125l55 -47h23v55h76v-55h23l56 47v281l-56 49h-122l-55 -49v-281z" />
<glyph unicode="r" horiz-adv-x="487" d="M37 265l45 38v230h257l86 -101v-106l-86 -101l111 -225h-84l-112 225h-95v-225h-77v225zM159 303h143l45 56v41l-45 54h-143v-151z" />
<glyph unicode="s" horiz-adv-x="492" d="M56 89v96h77v-59l56 -48h115l55 48v59l-55 48h-136l-101 89v122l101 89h169l100 -89v-88h-78v55l-52 44h-110l-51 -44v-55l51 -46h140l100 -88v-133l-100 -89h-181z" />
<glyph unicode="t" horiz-adv-x="438" d="M26 455v78h388v-78h-155v-152l44 -38l-44 -39v-226h-78v226l-44 39l44 38v152h-155z" />
<glyph unicode="u" horiz-adv-x="547" d="M36 265l44 39v229h78v-407l55 -48h122l55 48v407h78v-229l45 -39l-45 -39v-137l-100 -89h-188l-100 89v137z" />
<glyph unicode="v" horiz-adv-x="506" d="M9 533h88l156 -425l155 425h91l-87 -235l40 -39l-68 -34l-89 -225h-83l-88 225l-68 34l41 39z" />
<glyph unicode="w" horiz-adv-x="702" d="M3 533h89l122 -425l93 425h88l93 -425l122 425h89l-71 -231l44 -43l-68 -34l-71 -225h-89l-93 393l-92 -393h-89l-72 225l-68 34l45 43z" />
<glyph unicode="x" horiz-adv-x="476" d="M21 0l174 266l-174 267h88l130 -201l129 201h89l-175 -267l175 -266h-89l-129 202l-130 -202h-88z" />
<glyph unicode="y" horiz-adv-x="489" d="M6 533h89l151 -221l149 221h89l-201 -300v-233h-77v233z" />
<glyph unicode="z" horiz-adv-x="447" d="M36 0v78l279 377h-279v78h377v-78l-278 -377h278v-78h-377z" />
<glyph unicode="&#xad;" d="M33 272l44 38h294l45 -38l-45 -38h-294z" />
<glyph unicode="&#x2000;" horiz-adv-x="341" />
<glyph unicode="&#x2001;" horiz-adv-x="682" />
<glyph unicode="&#x2002;" horiz-adv-x="341" />
<glyph unicode="&#x2003;" horiz-adv-x="682" />
<glyph unicode="&#x2004;" horiz-adv-x="227" />
<glyph unicode="&#x2005;" horiz-adv-x="170" />
<glyph unicode="&#x2006;" horiz-adv-x="113" />
<glyph unicode="&#x2007;" horiz-adv-x="113" />
<glyph unicode="&#x2008;" horiz-adv-x="85" />
<glyph unicode="&#x2009;" horiz-adv-x="136" />
<glyph unicode="&#x200a;" horiz-adv-x="37" />
<glyph unicode="&#x2010;" d="M33 272l44 38h294l45 -38l-45 -38h-294z" />
<glyph unicode="&#x2011;" d="M33 272l44 38h294l45 -38l-45 -38h-294z" />
<glyph unicode="&#x2012;" d="M33 272l44 38h294l45 -38l-45 -38h-294z" />
<glyph unicode="&#x2013;" horiz-adv-x="517" d="M26 265l44 38h378l44 -38l-44 -39h-378z" />
<glyph unicode="&#x2014;" horiz-adv-x="610" d="M12 265l45 38h497l45 -38l-45 -39h-497z" />
<glyph unicode="&#x2018;" horiz-adv-x="164" d="M43 455v78h78v-78h-39v-50h-17z" />
<glyph unicode="&#x2019;" horiz-adv-x="164" d="M43 455v78h78v-78l-22 -50h-15v50h-41z" />
<glyph unicode="&#x201c;" horiz-adv-x="292" d="M42 455v78h78v-78h-40v-50h-16zM173 455v78h78v-78h-40v-50h-16z" />
<glyph unicode="&#x201d;" horiz-adv-x="292" d="M42 455v78h78v-78l-22 -50h-16v50h-40zM173 455v78h78v-78l-22 -50h-16v50h-40z" />
<glyph unicode="&#x2026;" horiz-adv-x="626" d="M57 0v78h77v-78h-77zM275 0v78h78v-78h-78zM493 0v78h78v-78h-78z" />
<glyph unicode="&#x202f;" horiz-adv-x="136" />
<glyph unicode="&#x205f;" horiz-adv-x="170" />
<glyph unicode="&#xe000;" horiz-adv-x="533" d="M0 0v535h535v-535h-535z" />
</font>
</defs>
</svg>
